<svg width="20.833252" height="19.114563" viewBox="0 0 20.8333 19.1146" fill="none" xmlns="http://www.w3.org/2000/svg" xmlns:xlink="http://www.w3.org/1999/xlink">
	<desc>
			Created with Pixso.
	</desc>
	<defs/>
	<path id="Vector" d="M15.1042 0C13.2917 0 11.552 0.84375 10.4167 2.17706C9.28125 0.84375 7.54175 0 5.72925 0C2.52075 0 0 2.52081 0 5.72919C0 9.66669 3.54175 12.875 8.90625 17.75L10.4167 19.1146L11.927 17.7396C17.2917 12.875 20.8333 9.66669 20.8333 5.72919C20.8333 2.52081 18.3125 0 15.1042 0ZM10.5208 16.1979L10.4167 16.3021L10.3125 16.1979C5.35425 11.7083 2.08325 8.73956 2.08325 5.72919C2.08325 3.64581 3.64575 2.08331 5.72925 2.08331C7.33325 2.08331 8.89575 3.11456 9.448 4.54169L11.3958 4.54169C11.9375 3.11456 13.5 2.08331 15.1042 2.08331C17.1875 2.08331 18.75 3.64581 18.75 5.72919C18.75 8.73956 15.4792 11.7083 10.5208 16.1979Z" fill="#DCCA87" fill-opacity="1.000000" fill-rule="nonzero"/>
</svg>
